<svg viewBox="0 0 1000 1000" xmlns="http://www.w3.org/2000/svg" role="img" aria-label="Rueda de aromas del café en español, 13 familias">
<g font-family="Helvetica Neue, Helvetica, Arial, sans-serif">
<path d="M635.91,196.87 A332.20,332.20 0 0 1 831.39,476.83 L708.07,485.45 A208.58,208.58 0 0 0 585.33,309.68 Z" fill="#d06f5f"/>
<path d="M831.76,482.90 A332.20,332.20 0 0 1 820.35,587.94 L701.13,555.21 A208.58,208.58 0 0 0 708.30,489.27 Z" fill="#5f473c"/>
<path d="M818.60,594.07 A332.20,332.20 0 0 1 756.15,711.53 L660.83,632.81 A208.58,208.58 0 0 0 700.04,559.06 Z" fill="#bd9e70"/>
<path d="M752.80,715.53 A332.20,332.20 0 0 1 695.73,768.42 L622.89,668.53 A208.58,208.58 0 0 0 658.72,635.32 Z" fill="#56472e"/>
<path d="M690.78,771.96 A332.20,332.20 0 0 1 514.20,831.90 L508.92,708.38 A208.58,208.58 0 0 0 619.78,670.75 Z" fill="#837967"/>
<path d="M508.12,832.10 A332.20,332.20 0 0 1 378.25,809.09 L423.56,694.06 A208.58,208.58 0 0 0 505.10,708.51 Z" fill="#8b6e62"/>
<path d="M373.14,807.02 A332.20,332.20 0 0 1 245.33,713.31 L340.10,633.93 A208.58,208.58 0 0 0 420.35,692.77 Z" fill="#969793"/>
<path d="M241.83,709.06 A332.20,332.20 0 0 1 169.93,537.61 L292.77,523.61 A208.58,208.58 0 0 0 337.91,631.26 Z" fill="#9b7340"/>
<path d="M169.38,532.42 A332.20,332.20 0 0 1 168.25,482.61 L291.71,489.08 A208.58,208.58 0 0 0 292.42,520.35 Z" fill="#d8bf9b"/>
<path d="M168.57,477.41 A332.20,332.20 0 0 1 191.88,375.82 L306.54,422.04 A208.58,208.58 0 0 0 291.91,485.81 Z" fill="#77a37b"/>
<path d="M193.98,370.73 A332.20,332.20 0 0 1 311.60,226.39 L381.71,328.21 A208.58,208.58 0 0 0 307.86,418.84 Z" fill="#618166"/>
<path d="M316.16,223.30 A332.20,332.20 0 0 1 494.78,167.84 L496.72,291.45 A208.58,208.58 0 0 0 384.58,326.27 Z" fill="#876692"/>
<path d="M500.00,167.80 A332.20,332.20 0 0 1 630.87,194.66 L582.17,308.29 A208.58,208.58 0 0 0 500.00,291.42 Z" fill="#6c5887"/>
<path d="M500.84,20.00 A480.00,480.00 0 0 1 537.66,21.48 L526.06,168.82 A332.20,332.20 0 0 0 500.58,167.80 Z" fill="#ae454d"/>
<path d="M539.75,21.65 A480.00,480.00 0 0 1 577.98,26.38 L553.97,172.21 A332.20,332.20 0 0 0 527.51,168.94 Z" fill="#ae4169"/>
<path d="M578.81,26.51 A480.00,480.00 0 0 1 617.75,34.67 L581.49,177.95 A332.20,332.20 0 0 0 554.54,172.31 Z" fill="#575580"/>
<path d="M618.56,34.87 A480.00,480.00 0 0 1 656.27,46.15 L608.15,185.90 A332.20,332.20 0 0 0 582.05,178.09 Z" fill="#463f55"/>
<path d="M657.06,46.42 A480.00,480.00 0 0 1 692.17,60.15 L633.00,195.58 A332.20,332.20 0 0 0 608.70,186.09 Z" fill="#2f3343"/>
<path d="M696.38,62.01 A480.00,480.00 0 0 1 729.77,78.57 L659.02,208.33 A332.20,332.20 0 0 0 635.91,196.87 Z" fill="#bbc298"/>
<path d="M730.51,78.97 A480.00,480.00 0 0 1 764.58,99.50 L683.11,222.82 A332.20,332.20 0 0 0 659.53,208.61 Z" fill="#b9c477"/>
<path d="M765.63,100.20 A480.00,480.00 0 0 1 796.51,122.53 L705.21,238.76 A332.20,332.20 0 0 0 683.84,223.30 Z" fill="#ab6b65"/>
<path d="M798.48,124.09 A480.00,480.00 0 0 1 827.67,149.24 L726.77,257.24 A332.20,332.20 0 0 0 706.57,239.84 Z" fill="#85af74"/>
<path d="M828.58,150.10 A480.00,480.00 0 0 1 855.87,177.88 L746.29,277.07 A332.20,332.20 0 0 0 727.41,257.84 Z" fill="#f6e95e"/>
<path d="M856.99,179.13 A480.00,480.00 0 0 1 881.83,209.13 L764.26,298.69 A332.20,332.20 0 0 0 747.07,277.93 Z" fill="#8cb474"/>
<path d="M882.59,210.13 A480.00,480.00 0 0 1 904.60,241.74 L780.02,321.26 A332.20,332.20 0 0 0 764.78,299.38 Z" fill="#ca7c47"/>
<path d="M905.73,243.51 A480.00,480.00 0 0 1 925.18,277.25 L794.26,345.84 A332.20,332.20 0 0 0 780.80,322.49 Z" fill="#d48955"/>
<path d="M925.96,278.73 A480.00,480.00 0 0 1 942.33,313.61 L806.13,371.00 A332.20,332.20 0 0 0 794.80,346.86 Z" fill="#cb9874"/>
<path d="M942.82,314.77 A480.00,480.00 0 0 1 956.51,351.67 L815.94,397.34 A332.20,332.20 0 0 0 806.47,371.80 Z" fill="#dda876"/>
<path d="M956.89,352.87 A480.00,480.00 0 0 1 967.22,389.98 L823.36,423.86 A332.20,332.20 0 0 0 816.21,398.17 Z" fill="#ebd35f"/>
<path d="M967.60,391.62 A480.00,480.00 0 0 1 974.91,430.29 L828.68,451.76 A332.20,332.20 0 0 0 823.62,424.99 Z" fill="#efe199"/>
<path d="M975.03,431.12 A480.00,480.00 0 0 1 978.94,468.19 L831.47,477.98 A332.20,332.20 0 0 0 828.76,452.33 Z" fill="#ead892"/>
<path d="M979.25,473.21 A480.00,480.00 0 0 1 979.88,510.89 L832.12,507.54 A332.20,332.20 0 0 0 831.68,481.46 Z" fill="#22353e"/>
<path d="M979.86,511.73 A480.00,480.00 0 0 1 977.28,551.01 L830.32,535.30 A332.20,332.20 0 0 0 832.10,508.12 Z" fill="#2b3e48"/>
<path d="M977.15,552.26 A480.00,480.00 0 0 1 971.34,590.77 L826.21,562.82 A332.20,332.20 0 0 0 830.23,536.17 Z" fill="#3c332c"/>
<path d="M971.02,592.41 A480.00,480.00 0 0 1 962.54,628.27 L820.12,588.78 A332.20,332.20 0 0 0 825.99,563.96 Z" fill="#723043"/>
<path d="M961.29,632.71 A480.00,480.00 0 0 1 949.46,668.49 L811.06,616.61 A332.20,332.20 0 0 0 819.25,591.85 Z" fill="#3d3127"/>
<path d="M949.01,669.67 A480.00,480.00 0 0 1 933.78,705.51 L800.21,642.23 A332.20,332.20 0 0 0 810.76,617.42 Z" fill="#e1d3a6"/>
<path d="M933.42,706.27 A480.00,480.00 0 0 1 914.85,741.45 L787.11,667.10 A332.20,332.20 0 0 0 799.96,642.75 Z" fill="#c4ae69"/>
<path d="M914.43,742.17 A480.00,480.00 0 0 1 893.19,775.32 L772.12,690.54 A332.20,332.20 0 0 0 786.82,667.60 Z" fill="#a57d56"/>
<path d="M892.47,776.35 A480.00,480.00 0 0 1 870.11,805.64 L756.15,711.53 A332.20,332.20 0 0 0 771.62,691.25 Z" fill="#a57648"/>
<path d="M867.16,809.18 A480.00,480.00 0 0 1 841.77,837.03 L736.54,733.26 A332.20,332.20 0 0 0 754.11,713.98 Z" fill="#3c3120"/>
<path d="M840.89,837.93 A480.00,480.00 0 0 1 812.69,864.18 L716.41,752.04 A332.20,332.20 0 0 0 735.92,733.87 Z" fill="#453822"/>
<path d="M810.78,865.81 A480.00,480.00 0 0 1 782.48,888.08 L695.50,768.59 A332.20,332.20 0 0 0 715.09,753.17 Z" fill="#5e4b2e"/>
<path d="M778.40,891.02 A480.00,480.00 0 0 1 747.58,911.22 L671.34,784.60 A332.20,332.20 0 0 0 692.67,770.62 Z" fill="#615236"/>
<path d="M745.78,912.30 A480.00,480.00 0 0 1 711.55,930.87 L646.41,798.20 A332.20,332.20 0 0 0 670.10,785.35 Z" fill="#736957"/>
<path d="M710.42,931.42 A480.00,480.00 0 0 1 674.75,947.06 L620.94,809.40 A332.20,332.20 0 0 0 645.63,798.58 Z" fill="#d8c4a7"/>
<path d="M673.58,947.52 A480.00,480.00 0 0 1 636.73,960.11 L594.63,818.44 A332.20,332.20 0 0 0 620.13,809.72 Z" fill="#8d7d61"/>
<path d="M635.93,960.35 A480.00,480.00 0 0 1 598.16,969.86 L567.93,825.18 A332.20,332.20 0 0 0 594.07,818.60 Z" fill="#918064"/>
<path d="M596.52,970.20 A480.00,480.00 0 0 1 558.91,976.37 L540.77,829.69 A332.20,332.20 0 0 0 566.80,825.42 Z" fill="#deceb8"/>
<path d="M557.25,976.57 A480.00,480.00 0 0 1 520.10,979.58 L513.91,831.91 A332.20,332.20 0 0 0 539.62,829.83 Z" fill="#a38d74"/>
<path d="M515.91,979.74 A480.00,480.00 0 0 1 478.23,979.51 L484.93,831.86 A332.20,332.20 0 0 0 511.01,832.02 Z" fill="#969793"/>
<path d="M476.55,979.43 A480.00,480.00 0 0 1 438.18,976.00 L457.21,829.43 A332.20,332.20 0 0 0 483.77,831.80 Z" fill="#746a53"/>
<path d="M436.93,975.84 A480.00,480.00 0 0 1 398.56,969.16 L429.80,824.70 A332.20,332.20 0 0 0 456.35,829.32 Z" fill="#948773"/>
<path d="M397.75,968.98 A480.00,480.00 0 0 1 360.06,959.15 L403.15,817.77 A332.20,332.20 0 0 0 429.23,824.58 Z" fill="#4e4a3e"/>
<path d="M359.26,958.90 A480.00,480.00 0 0 1 324.08,946.60 L378.25,809.09 A332.20,332.20 0 0 0 402.60,817.60 Z" fill="#4e4a3e"/>
<path d="M319.80,944.89 A480.00,480.00 0 0 1 285.45,929.38 L351.51,797.17 A332.20,332.20 0 0 0 375.29,807.90 Z" fill="#6b5944"/>
<path d="M284.70,929.01 A480.00,480.00 0 0 1 250.63,910.14 L327.42,783.85 A332.20,332.20 0 0 0 350.99,796.91 Z" fill="#51504a"/>
<path d="M249.56,909.49 A480.00,480.00 0 0 1 217.19,887.84 L304.27,768.42 A332.20,332.20 0 0 0 326.67,783.40 Z" fill="#605a4f"/>
<path d="M216.17,887.09 A480.00,480.00 0 0 1 185.72,862.81 L282.49,751.10 A332.20,332.20 0 0 0 303.57,767.90 Z" fill="#7b6e5c"/>
<path d="M184.78,861.99 A480.00,480.00 0 0 1 156.76,835.54 L262.45,732.22 A332.20,332.20 0 0 0 281.84,750.53 Z" fill="#997e63"/>
<path d="M155.88,834.64 A480.00,480.00 0 0 1 131.22,807.25 L244.78,712.65 A332.20,332.20 0 0 0 261.84,731.60 Z" fill="#a28f7b"/>
<path d="M128.29,803.70 A480.00,480.00 0 0 1 105.61,773.60 L227.05,689.35 A332.20,332.20 0 0 0 242.75,710.19 Z" fill="#947a52"/>
<path d="M105.13,772.91 A480.00,480.00 0 0 1 84.52,740.36 L212.45,666.35 A332.20,332.20 0 0 0 226.72,688.88 Z" fill="#433b2a"/>
<path d="M83.89,739.27 A480.00,480.00 0 0 1 65.68,704.37 L199.42,641.44 A332.20,332.20 0 0 0 212.02,665.60 Z" fill="#6b5d41"/>
<path d="M65.15,703.24 A480.00,480.00 0 0 1 50.10,667.31 L188.63,615.80 A332.20,332.20 0 0 0 199.05,640.66 Z" fill="#877c6a"/>
<path d="M49.81,666.53 A480.00,480.00 0 0 1 37.79,629.48 L180.11,589.61 A332.20,332.20 0 0 0 188.43,615.25 Z" fill="#433b2a"/>
<path d="M37.57,628.68 A480.00,480.00 0 0 1 28.74,591.18 L173.85,563.10 A332.20,332.20 0 0 0 179.96,589.06 Z" fill="#b9a688"/>
<path d="M28.42,589.53 A480.00,480.00 0 0 1 22.99,553.51 L169.87,537.03 A332.20,332.20 0 0 0 173.63,561.96 Z" fill="#1f1b13"/>
<path d="M22.42,548.09 A480.00,480.00 0 0 1 20.13,511.31 L167.89,507.83 A332.20,332.20 0 0 0 169.47,533.28 Z" fill="#b8a78c"/>
<path d="M20.10,509.63 A480.00,480.00 0 0 1 20.73,473.62 L168.30,481.75 A332.20,332.20 0 0 0 167.87,506.67 Z" fill="#dcc7a9"/>
<path d="M21.03,468.61 A480.00,480.00 0 0 1 24.91,431.54 L171.19,452.62 A332.20,332.20 0 0 0 168.51,478.27 Z" fill="#5f7f66"/>
<path d="M25.15,429.88 A480.00,480.00 0 0 1 32.30,392.02 L176.31,425.27 A332.20,332.20 0 0 0 171.36,451.47 Z" fill="#669f67"/>
<path d="M32.68,390.39 A480.00,480.00 0 0 1 42.85,353.67 L183.61,398.72 A332.20,332.20 0 0 0 176.58,424.14 Z" fill="#b6b18e"/>
<path d="M43.36,352.07 A480.00,480.00 0 0 1 56.06,317.47 L192.75,373.68 A332.20,332.20 0 0 0 183.97,397.62 Z" fill="#b0a06a"/>
<path d="M57.83,313.22 A480.00,480.00 0 0 1 73.85,279.10 L205.07,347.12 A332.20,332.20 0 0 0 193.98,370.73 Z" fill="#6f7f69"/>
<path d="M74.23,278.36 A480.00,480.00 0 0 1 93.38,244.93 L218.58,323.47 A332.20,332.20 0 0 0 205.33,346.61 Z" fill="#779263"/>
<path d="M94.50,243.16 A480.00,480.00 0 0 1 116.40,211.46 L234.52,300.31 A332.20,332.20 0 0 0 219.36,322.24 Z" fill="#4d874f"/>
<path d="M117.16,210.46 A480.00,480.00 0 0 1 141.61,180.69 L251.97,279.01 A332.20,332.20 0 0 0 235.04,299.61 Z" fill="#64876a"/>
<path d="M142.73,179.44 A480.00,480.00 0 0 1 169.89,151.53 L271.54,258.83 A332.20,332.20 0 0 0 252.74,278.15 Z" fill="#4d874f"/>
<path d="M170.81,150.67 A480.00,480.00 0 0 1 200.21,125.13 L292.52,240.56 A332.20,332.20 0 0 0 272.17,258.23 Z" fill="#3c8e50"/>
<path d="M200.87,124.61 A480.00,480.00 0 0 1 230.89,102.53 L313.75,224.92 A332.20,332.20 0 0 0 292.97,240.20 Z" fill="#93524d"/>
<path d="M234.72,99.97 A480.00,480.00 0 0 1 266.93,80.39 L338.69,209.59 A332.20,332.20 0 0 0 316.40,223.14 Z" fill="#776081"/>
<path d="M267.66,79.98 A480.00,480.00 0 0 1 302.09,62.70 L363.03,197.35 A332.20,332.20 0 0 0 339.20,209.31 Z" fill="#83394a"/>
<path d="M304.00,61.84 A480.00,480.00 0 0 1 339.77,47.53 L389.11,186.85 A332.20,332.20 0 0 0 364.35,196.76 Z" fill="#a04a5e"/>
<path d="M341.35,46.98 A480.00,480.00 0 0 1 377.79,35.82 L415.42,178.75 A332.20,332.20 0 0 0 390.20,186.47 Z" fill="#e1d2d9"/>
<path d="M379.41,35.39 A480.00,480.00 0 0 1 417.06,27.22 L442.60,172.80 A332.20,332.20 0 0 0 416.54,178.45 Z" fill="#e1d2d9"/>
<path d="M418.71,26.93 A480.00,480.00 0 0 1 457.33,21.90 L470.47,169.11 A332.20,332.20 0 0 0 443.74,172.60 Z" fill="#e3d8b9"/>
<path d="M459.00,21.75 A480.00,480.00 0 0 1 495.81,20.02 L497.10,167.81 A332.20,332.20 0 0 0 471.62,169.01 Z" fill="#e0e0db"/>
<text x="682.49" y="372.57" transform="rotate(-34.92 682.49 372.57)" text-anchor="start" dominant-baseline="central" font-size="21.58" font-weight="700" letter-spacing=".4" fill="#FFFFFF">FRUTAL</text>
<text x="721.27" y="524.04" transform="rotate(6.20 721.27 524.04)" text-anchor="start" dominant-baseline="central" font-size="26.00" font-weight="700" letter-spacing=".4" fill="#FFFFFF"><tspan x="721.27" dy="-14.30">FRUTA</tspan><tspan x="721.27" dy="28.60">SECA</tspan></text>
<text x="696.52" y="604.49" transform="rotate(28.00 696.52 604.49)" text-anchor="start" dominant-baseline="central" font-size="21.58" font-weight="700" letter-spacing=".4" fill="#FFFFFF">DULCES</text>
<text x="651.30" y="663.24" transform="rotate(47.18 651.30 663.24)" text-anchor="start" dominant-baseline="central" font-size="14.20" font-weight="700" letter-spacing=".4" fill="#FFFFFF">CHOCOLATE</text>
<text x="571.54" y="710.76" transform="rotate(71.25 571.54 710.76)" text-anchor="start" dominant-baseline="central" font-size="21.58" font-weight="700" letter-spacing=".4" fill="#FFFFFF"><tspan x="571.54" dy="-11.87">FRUTOS</tspan><tspan x="571.54" dy="23.74">SECOS</tspan></text>
<text x="461.16" y="719.16" transform="rotate(280.05 461.16 719.16)" text-anchor="end" dominant-baseline="central" font-size="18.42" font-weight="700" letter-spacing=".4" fill="#FFFFFF">TOSTADO</text>
<text x="368.39" y="679.49" transform="rotate(306.25 368.39 679.49)" text-anchor="end" dominant-baseline="central" font-size="12.73" font-weight="700" letter-spacing=".4" fill="#FFFFFF">INDUSTRIAL</text>
<text x="294.74" y="586.07" transform="rotate(337.25 294.74 586.07)" text-anchor="end" dominant-baseline="central" font-size="16.05" font-weight="700" letter-spacing=".4" fill="#FFFFFF">ESPECIAS</text>
<text x="277.48" y="505.05" transform="rotate(358.70 277.48 505.05)" text-anchor="end" dominant-baseline="central" font-size="21.58" font-weight="700" letter-spacing=".4" fill="#2B2724">CEREAL</text>
<text x="283.06" y="450.22" transform="rotate(372.92 283.06 450.22)" text-anchor="end" dominant-baseline="central" font-size="26.00" font-weight="700" letter-spacing=".4" fill="#FFFFFF">VERDE</text>
<text x="327.45" y="359.40" transform="rotate(399.17 327.45 359.40)" text-anchor="end" dominant-baseline="central" font-size="18.42" font-weight="700" letter-spacing=".4" fill="#FFFFFF">HIERBAS</text>
<text x="434.00" y="287.44" transform="rotate(432.75 434.00 287.44)" text-anchor="end" dominant-baseline="central" font-size="21.58" font-weight="700" letter-spacing=".4" fill="#FFFFFF">FLORAL</text>
<text x="544.76" y="281.97" transform="rotate(-78.40 544.76 281.97)" text-anchor="start" dominant-baseline="central" font-size="26.00" font-weight="700" letter-spacing=".4" fill="#FFFFFF">BAYAS</text>
<text x="513.69" y="159.07" transform="rotate(-87.70 513.69 159.07)" text-anchor="start" dominant-baseline="central" font-size="13.50" font-weight="600" letter-spacing=".4" fill="#FFFFFF">FRUTILLA</text>
<text x="541.88" y="161.38" transform="rotate(-82.95 541.88 161.38)" text-anchor="start" dominant-baseline="central" font-size="13.50" font-weight="600" letter-spacing=".4" fill="#FFFFFF">FRAMBUESA</text>
<text x="569.92" y="166.04" transform="rotate(-78.17 569.92 166.04)" text-anchor="start" dominant-baseline="central" font-size="13.50" font-weight="600" letter-spacing=".4" fill="#FFFFFF">ARÁNDANO</text>
<text x="597.76" y="173.10" transform="rotate(-73.35 597.76 173.10)" text-anchor="start" dominant-baseline="central" font-size="13.44" font-weight="600" letter-spacing=".4" fill="#FFFFFF">GROSELLA NEGRA</text>
<text x="624.22" y="182.21" transform="rotate(-68.65 624.22 182.21)" text-anchor="start" dominant-baseline="central" font-size="13.50" font-weight="600" letter-spacing=".4" fill="#FFFFFF">MORA</text>
<text x="651.58" y="194.32" transform="rotate(-63.62 651.58 194.32)" text-anchor="start" dominant-baseline="central" font-size="13.50" font-weight="600" letter-spacing=".4" fill="#2B2724">PERA</text>
<text x="676.11" y="207.76" transform="rotate(-58.92 676.11 207.76)" text-anchor="start" dominant-baseline="central" font-size="13.50" font-weight="600" letter-spacing=".4" fill="#2B2724">MANZANA VERDE</text>
<text x="699.95" y="223.53" transform="rotate(-54.12 699.95 223.53)" text-anchor="start" dominant-baseline="central" font-size="13.50" font-weight="600" letter-spacing=".4" fill="#FFFFFF">MANZANA ROJA</text>
<text x="722.72" y="241.52" transform="rotate(-49.25 722.72 241.52)" text-anchor="start" dominant-baseline="central" font-size="13.50" font-weight="600" letter-spacing=".4" fill="#FFFFFF">LIMA</text>
<text x="743.47" y="260.95" transform="rotate(-44.47 743.47 260.95)" text-anchor="start" dominant-baseline="central" font-size="13.50" font-weight="600" letter-spacing=".4" fill="#2B2724">LIMÓN</text>
<text x="762.81" y="282.40" transform="rotate(-39.62 762.81 282.40)" text-anchor="start" dominant-baseline="central" font-size="13.50" font-weight="600" letter-spacing=".4" fill="#FFFFFF">BERGAMOTA</text>
<text x="780.01" y="305.03" transform="rotate(-34.85 780.01 305.03)" text-anchor="start" dominant-baseline="central" font-size="13.50" font-weight="600" letter-spacing=".4" fill="#FFFFFF">NARANJA</text>
<text x="795.56" y="329.53" transform="rotate(-29.97 795.56 329.53)" text-anchor="start" dominant-baseline="central" font-size="13.50" font-weight="600" letter-spacing=".4" fill="#FFFFFF">MANDARINA</text>
<text x="808.85" y="354.99" transform="rotate(-25.15 808.85 354.99)" text-anchor="start" dominant-baseline="central" font-size="13.50" font-weight="600" letter-spacing=".4" fill="#FFFFFF">DAMASCO</text>
<text x="819.91" y="381.35" transform="rotate(-20.35 819.91 381.35)" text-anchor="start" dominant-baseline="central" font-size="13.50" font-weight="600" letter-spacing=".4" fill="#2B2724">DURAZNO</text>
<text x="828.71" y="408.53" transform="rotate(-15.55 828.71 408.53)" text-anchor="start" dominant-baseline="central" font-size="13.50" font-weight="600" letter-spacing=".4" fill="#2B2724">MANGO</text>
<text x="835.27" y="436.65" transform="rotate(-10.70 835.27 436.65)" text-anchor="start" dominant-baseline="central" font-size="13.50" font-weight="600" letter-spacing=".4" fill="#2B2724">PIÑA</text>
<text x="839.32" y="464.19" transform="rotate(-6.03 839.32 464.19)" text-anchor="start" dominant-baseline="central" font-size="13.50" font-weight="600" letter-spacing=".4" fill="#2B2724">MELÓN</text>
<text x="841.15" y="494.34" transform="rotate(-0.95 841.15 494.34)" text-anchor="start" dominant-baseline="central" font-size="13.50" font-weight="600" letter-spacing=".4" fill="#FFFFFF">PASA</text>
<text x="840.47" y="522.32" transform="rotate(3.75 840.47 522.32)" text-anchor="start" dominant-baseline="central" font-size="13.50" font-weight="600" letter-spacing=".4" fill="#FFFFFF">CIRUELA PASA</text>
<text x="837.39" y="550.87" transform="rotate(8.58 837.39 550.87)" text-anchor="start" dominant-baseline="central" font-size="13.50" font-weight="600" letter-spacing=".4" fill="#FFFFFF">DÁTIL</text>
<text x="832.05" y="578.49" transform="rotate(13.30 832.05 578.49)" text-anchor="start" dominant-baseline="central" font-size="13.50" font-weight="600" letter-spacing=".4" fill="#FFFFFF">ARÁNDANO ROJO</text>
<text x="823.95" y="607.13" transform="rotate(18.30 823.95 607.13)" text-anchor="start" dominant-baseline="central" font-size="13.50" font-weight="600" letter-spacing=".4" fill="#FFFFFF">VAINILLA</text>
<text x="814.02" y="633.46" transform="rotate(23.03 814.02 633.46)" text-anchor="start" dominant-baseline="central" font-size="13.50" font-weight="600" letter-spacing=".4" fill="#2B2724">MANTEQUILLA</text>
<text x="801.75" y="659.26" transform="rotate(27.83 801.75 659.26)" text-anchor="start" dominant-baseline="central" font-size="13.50" font-weight="600" letter-spacing=".4" fill="#2B2724">MIEL</text>
<text x="787.29" y="684.08" transform="rotate(32.65 787.29 684.08)" text-anchor="start" dominant-baseline="central" font-size="13.50" font-weight="600" letter-spacing=".4" fill="#FFFFFF">CARAMELO</text>
<text x="771.24" y="707.00" transform="rotate(37.35 771.24 707.00)" text-anchor="start" dominant-baseline="central" font-size="13.50" font-weight="600" letter-spacing=".4" fill="#FFFFFF">LICOR DULCE</text>
<text x="752.16" y="729.85" transform="rotate(42.35 752.16 729.85)" text-anchor="start" dominant-baseline="central" font-size="13.50" font-weight="600" letter-spacing=".4" fill="#FFFFFF">CACAO PURO</text>
<text x="732.48" y="749.74" transform="rotate(47.05 732.48 749.74)" text-anchor="start" dominant-baseline="central" font-size="11.69" font-weight="600" letter-spacing=".4" fill="#FFFFFF">CHOCOLATE AMARGO</text>
<text x="711.00" y="768.14" transform="rotate(51.80 711.00 768.14)" text-anchor="start" dominant-baseline="central" font-size="9.74" font-weight="600" letter-spacing=".4" fill="#FFFFFF">CHOCOLATE CON LECHE</text>
<text x="687.08" y="785.34" transform="rotate(56.75 687.08 785.34)" text-anchor="start" dominant-baseline="central" font-size="13.50" font-weight="600" letter-spacing=".4" fill="#FFFFFF">AVELLANA</text>
<text x="662.68" y="799.92" transform="rotate(61.52 662.68 799.92)" text-anchor="start" dominant-baseline="central" font-size="13.50" font-weight="600" letter-spacing=".4" fill="#FFFFFF">ALMENDRA</text>
<text x="637.01" y="812.49" transform="rotate(66.32 637.01 812.49)" text-anchor="start" dominant-baseline="central" font-size="13.50" font-weight="600" letter-spacing=".4" fill="#2B2724">MANÍ</text>
<text x="610.38" y="822.85" transform="rotate(71.12 610.38 822.85)" text-anchor="start" dominant-baseline="central" font-size="13.50" font-weight="600" letter-spacing=".4" fill="#FFFFFF">NUEZ</text>
<text x="583.27" y="830.89" transform="rotate(75.88 583.27 830.89)" text-anchor="start" dominant-baseline="central" font-size="13.50" font-weight="600" letter-spacing=".4" fill="#FFFFFF">PECANA</text>
<text x="555.29" y="836.69" transform="rotate(80.68 555.29 836.69)" text-anchor="start" dominant-baseline="central" font-size="13.50" font-weight="600" letter-spacing=".4" fill="#2B2724">MARAÑÓN</text>
<text x="527.51" y="840.09" transform="rotate(85.38 527.51 840.09)" text-anchor="start" dominant-baseline="central" font-size="13.44" font-weight="600" letter-spacing=".4" fill="#FFFFFF">NUEZ DE BRASIL</text>
<text x="497.92" y="841.20" transform="rotate(270.35 497.92 841.20)" text-anchor="end" dominant-baseline="central" font-size="13.50" font-weight="600" letter-spacing=".4" fill="#FFFFFF">HUMO</text>
<text x="469.67" y="839.85" transform="rotate(275.10 469.67 839.85)" text-anchor="end" dominant-baseline="central" font-size="13.50" font-weight="600" letter-spacing=".4" fill="#FFFFFF">TABACO</text>
<text x="441.48" y="836.15" transform="rotate(279.88 441.48 836.15)" text-anchor="end" dominant-baseline="central" font-size="13.50" font-weight="600" letter-spacing=".4" fill="#FFFFFF">PAN TOSTADO</text>
<text x="413.85" y="830.15" transform="rotate(284.62 413.85 830.15)" text-anchor="end" dominant-baseline="central" font-size="13.50" font-weight="600" letter-spacing=".4" fill="#FFFFFF">QUEMADO</text>
<text x="387.37" y="822.08" transform="rotate(289.27 387.37 822.08)" text-anchor="end" dominant-baseline="central" font-size="13.50" font-weight="600" letter-spacing=".4" fill="#FFFFFF">CENIZA</text>
<text x="359.59" y="810.97" transform="rotate(294.30 359.59 810.97)" text-anchor="end" dominant-baseline="central" font-size="13.50" font-weight="600" letter-spacing=".4" fill="#FFFFFF">CUERO</text>
<text x="334.71" y="798.49" transform="rotate(298.98 334.71 798.49)" text-anchor="end" dominant-baseline="central" font-size="13.50" font-weight="600" letter-spacing=".4" fill="#FFFFFF">CAUCHO</text>
<text x="310.31" y="783.62" transform="rotate(303.77 310.31 783.62)" text-anchor="end" dominant-baseline="central" font-size="13.50" font-weight="600" letter-spacing=".4" fill="#FFFFFF">TIERRA</text>
<text x="287.25" y="766.75" transform="rotate(308.57 287.25 766.75)" text-anchor="end" dominant-baseline="central" font-size="13.50" font-weight="600" letter-spacing=".4" fill="#FFFFFF">MOHO</text>
<text x="265.78" y="748.11" transform="rotate(313.35 265.78 748.11)" text-anchor="end" dominant-baseline="central" font-size="13.50" font-weight="600" letter-spacing=".4" fill="#FFFFFF">MADERA</text>
<text x="246.44" y="728.31" transform="rotate(318.00 246.44 728.31)" text-anchor="end" dominant-baseline="central" font-size="13.44" font-weight="600" letter-spacing=".4" fill="#FFFFFF">PAPEL / CARTÓN</text>
<text x="227.50" y="705.34" transform="rotate(323.00 227.50 705.34)" text-anchor="end" dominant-baseline="central" font-size="13.50" font-weight="600" letter-spacing=".4" fill="#FFFFFF">CANELA</text>
<text x="211.75" y="682.57" transform="rotate(327.65 211.75 682.57)" text-anchor="end" dominant-baseline="central" font-size="13.50" font-weight="600" letter-spacing=".4" fill="#FFFFFF">CLAVO DE OLOR</text>
<text x="197.49" y="657.81" transform="rotate(332.45 197.49 657.81)" text-anchor="end" dominant-baseline="central" font-size="13.50" font-weight="600" letter-spacing=".4" fill="#FFFFFF">NUEZ MOSCADA</text>
<text x="185.29" y="631.81" transform="rotate(337.27 185.29 631.81)" text-anchor="end" dominant-baseline="central" font-size="13.50" font-weight="600" letter-spacing=".4" fill="#FFFFFF">CARDAMOMO</text>
<text x="175.45" y="605.30" transform="rotate(342.02 175.45 605.30)" text-anchor="end" dominant-baseline="central" font-size="13.50" font-weight="600" letter-spacing=".4" fill="#FFFFFF">PIMIENTA</text>
<text x="167.88" y="578.20" transform="rotate(346.75 167.88 578.20)" text-anchor="end" dominant-baseline="central" font-size="9.74" font-weight="600" letter-spacing=".4" fill="#FFFFFF">SEMILLA DE CILANTRO</text>
<text x="162.61" y="550.87" transform="rotate(351.43 162.61 550.87)" text-anchor="end" dominant-baseline="central" font-size="13.50" font-weight="600" letter-spacing=".4" fill="#FFFFFF">REGALIZ</text>
<text x="159.45" y="521.13" transform="rotate(356.45 159.45 521.13)" text-anchor="end" dominant-baseline="central" font-size="13.50" font-weight="600" letter-spacing=".4" fill="#FFFFFF">MALTA</text>
<text x="158.85" y="494.05" transform="rotate(361.00 158.85 494.05)" text-anchor="end" dominant-baseline="central" font-size="13.50" font-weight="600" letter-spacing=".4" fill="#2B2724">GRANO</text>
<text x="160.65" y="464.48" transform="rotate(365.98 160.65 464.48)" text-anchor="end" dominant-baseline="central" font-size="13.50" font-weight="600" letter-spacing=".4" fill="#FFFFFF">CEDRO</text>
<text x="164.73" y="436.65" transform="rotate(370.70 164.73 436.65)" text-anchor="end" dominant-baseline="central" font-size="13.50" font-weight="600" letter-spacing=".4" fill="#FFFFFF">PASTO</text>
<text x="171.17" y="408.96" transform="rotate(375.48 171.17 408.96)" text-anchor="end" dominant-baseline="central" font-size="13.50" font-weight="600" letter-spacing=".4" fill="#2B2724">PAJA</text>
<text x="179.68" y="382.46" transform="rotate(380.15 179.68 382.46)" text-anchor="end" dominant-baseline="central" font-size="13.50" font-weight="600" letter-spacing=".4" fill="#FFFFFF">HENO</text>
<text x="191.15" y="354.99" transform="rotate(385.15 191.15 354.99)" text-anchor="end" dominant-baseline="central" font-size="13.50" font-weight="600" letter-spacing=".4" fill="#FFFFFF">TOMILLO</text>
<text x="203.92" y="330.43" transform="rotate(389.80 203.92 330.43)" text-anchor="end" dominant-baseline="central" font-size="13.50" font-weight="600" letter-spacing=".4" fill="#FFFFFF">ORÉGANO</text>
<text x="219.31" y="306.01" transform="rotate(394.65 219.31 306.01)" text-anchor="end" dominant-baseline="central" font-size="13.50" font-weight="600" letter-spacing=".4" fill="#FFFFFF">ALBAHACA</text>
<text x="236.34" y="283.43" transform="rotate(399.40 236.34 283.43)" text-anchor="end" dominant-baseline="central" font-size="13.50" font-weight="600" letter-spacing=".4" fill="#FFFFFF">ROMERO</text>
<text x="255.49" y="262.02" transform="rotate(404.23 255.49 262.02)" text-anchor="end" dominant-baseline="central" font-size="13.50" font-weight="600" letter-spacing=".4" fill="#FFFFFF">ARVEJA</text>
<text x="276.26" y="242.39" transform="rotate(409.02 276.26 242.39)" text-anchor="end" dominant-baseline="central" font-size="13.50" font-weight="600" letter-spacing=".4" fill="#FFFFFF">PEPINO</text>
<text x="297.88" y="225.10" transform="rotate(413.67 297.88 225.10)" text-anchor="end" dominant-baseline="central" font-size="13.50" font-weight="600" letter-spacing=".4" fill="#FFFFFF">TOMATE</text>
<text x="322.74" y="208.46" transform="rotate(418.70 322.74 208.46)" text-anchor="end" dominant-baseline="central" font-size="13.50" font-weight="600" letter-spacing=".4" fill="#FFFFFF">LAVANDA</text>
<text x="346.96" y="195.05" transform="rotate(423.35 346.96 195.05)" text-anchor="end" dominant-baseline="central" font-size="13.50" font-weight="600" letter-spacing=".4" fill="#FFFFFF">ROSA</text>
<text x="373.29" y="183.20" transform="rotate(428.20 373.29 183.20)" text-anchor="end" dominant-baseline="central" font-size="13.50" font-weight="600" letter-spacing=".4" fill="#FFFFFF">HIBISCO</text>
<text x="400.10" y="173.75" transform="rotate(432.98 400.10 173.75)" text-anchor="end" dominant-baseline="central" font-size="13.50" font-weight="600" letter-spacing=".4" fill="#2B2724">JAZMÍN</text>
<text x="427.60" y="166.57" transform="rotate(437.75 427.60 166.57)" text-anchor="end" dominant-baseline="central" font-size="13.50" font-weight="600" letter-spacing=".4" fill="#2B2724">FLOR DE CAFÉ</text>
<text x="455.91" y="161.66" transform="rotate(442.57 455.91 161.66)" text-anchor="end" dominant-baseline="central" font-size="13.50" font-weight="600" letter-spacing=".4" fill="#2B2724">MANZANILLA</text>
<text x="483.93" y="159.18" transform="rotate(447.30 483.93 159.18)" text-anchor="end" dominant-baseline="central" font-size="13.50" font-weight="600" letter-spacing=".4" fill="#2B2724">SAÚCO</text>
</g></svg>